# xmcd
#
# Track frame offsets: 
#        150
#        20858
#        40051
#        63904
#        79461
#        103509
#        122473
#        139921
#        156224
#        171372
#        179355
#        193990
#        208391
#        237991
#
# Disc length: 3653 seconds
#
# Revision: 0
# Processed by: cddbd v1.5.2PL0 Copyright (c) Steve Scherf et al.
# Submitted via: ExactAudioCopy v0.99pb3
#
DISCID=cf0e430e
DTITLE=Slyde - Everyone's Entitled To Our Opinion
DYEAR=2008
DGENRE=Electronic
TTITLE0=1. Vibrate To This
TTITLE1=2. Sex And Drugs
TTITLE2=3. You're My Fix
TTITLE3=4. Looks Better
TTITLE4=5. Kiss Kiss Bang Bang
TTITLE5=6. Get This Good
TTITLE6=7. High Rise
TTITLE7=8. Fuck The Landlord
TTITLE8=9. Hold It Down
TTITLE9=10. Noodle Express
TTITLE10=11. Strange
TTITLE11=12. Blow That Stack
TTITLE12=13. Frequency
TTITLE13=14. Sex And Drugs
EXTD=
EXTT0=
EXTT1=
EXTT2=
EXTT3=
EXTT4=
EXTT5=
EXTT6=
EXTT7=
EXTT8=
EXTT9=
EXTT10=
EXTT11=
EXTT12=
EXTT13=
PLAYORDER=
